<?xml version="1.0" standalone="no"?>
<!DOCTYPE svg PUBLIC "-//W3C//DTD SVG 1.1//EN" "http://www.w3.org/Graphics/SVG/1.1/DTD/svg11.dtd">
<svg xmlns="http://www.w3.org/2000/svg" xmlns:xlink="http://www.w3.org/1999/xlink" width="1476" height="567" viewBox="0 0 1476 567" version="1.1">
    <!-- Generator: Sketch 53.2 (72643) - https://sketchapp.com -->
    <title>Page 3</title>
    <desc>Created with Sketch.</desc>
    <g id="Page-1" stroke="none" stroke-width="1" fill="none" fill-rule="evenodd">
        <g id="Page-3" transform="translate(-1.000000, -1.000000)" fill-rule="nonzero">
            <g id="g292" transform="translate(739.000293, 284.500000) scale(-1, 1) rotate(-180.000000) translate(-739.000293, -284.500000) translate(0.000293, 0.000000)">
                <g id="g314" transform="translate(-0.000000, 0.000000)">
                    <g id="g316-Clipped" transform="translate(-0.000000, 0.000000)">
                        <g id="g316" transform="translate(0.333311, 0.333308)">
                            <g id="g322" transform="translate(884.093845, 351.921325)" fill="#00D8FF">
                                <path d="M107.999997,215.999995 L107.999997,215.999995 C107.999997,156.646663 156.114663,108.531997 215.467995,108.531997 C156.114663,108.531997 107.999997,60.4173318 107.999997,1.06533331 L107.999997,1.06533331 L107.999997,1.06533331 C107.999997,60.4173318 59.8853318,108.531997 0.531999987,108.531997 L0.531999987,108.531997 L0.531999987,108.531997 C59.8853318,108.531997 107.999997,156.646663 107.999997,215.999995 Z" id="path324"/>
                            </g>
                            <g id="g326" transform="translate(0.795733, 106.170531)" fill="#FFFFFF">
                                <path d="M179.999996,230.666661 L129.26533,230.666661 L129.26533,1.25466664 L34.9639991,1.25466664 L34.9639991,230.666661 L0.771999981,230.666661 L0.771999981,308.975992 L34.9639991,308.975992 L34.9639991,317.799992 C34.9639991,355.661324 45.8039989,384.433324 67.498665,404.105323 C89.1879978,423.767989 120.99333,433.607989 162.905329,433.607989 C169.882662,433.607989 175.035996,433.418656 178.345329,433.057323 L178.345329,353.093325 C160.329329,354.195991 147.64533,351.619991 140.294663,345.373325 C132.93333,339.117325 129.26533,327.906658 129.26533,311.733326 L129.26533,308.975992 L179.999996,308.975992 L179.999996,230.666661 Z" id="path328"/>
                            </g>
                            <g id="g330" transform="translate(484.363855, 107.388397)" fill="#FFFFFF">
                                <path d="M194.666662,79.999998 L194.666662,0.0359999991 L146.687996,0.0359999991 C112.499997,0.0359999991 85.8373312,8.39466646 66.7253317,25.1279994 C47.6066655,41.8533323 38.0493324,69.1519983 38.0493324,107.022664 L38.0493324,229.449328 L0.550666653,229.449328 L0.550666653,307.757326 L38.0493324,307.757326 L38.0493324,382.757324 L132.350663,382.757324 L132.350663,307.757326 L194.117328,307.757326 L194.117328,229.449328 L132.350663,229.449328 L132.350663,105.918664 C132.350663,96.7253309 134.55733,90.1066644 138.96933,86.0653312 C143.379996,82.0159979 150.72933,79.999998 161.026663,79.999998 L194.666662,79.999998 Z" id="path332"/>
                            </g>
                            <g id="g334" transform="translate(673.464383, 103.511597)" fill="#FFFFFF">
                                <path d="M306.666659,217.333328 L306.666659,3.91333324 L212.365328,3.91333324 L212.365328,45.8253322 C202.801328,32.2186659 189.841329,21.2839995 173.485329,13.0119997 C157.123996,4.73999988 139.01733,0.603999985 119.16533,0.603999985 C95.6333309,0.603999985 74.8559981,5.84266652 56.8493319,16.3213329 C38.8293324,26.798666 24.8639994,41.9653323 14.937333,61.8173318 C5.01066654,81.6706646 0.0466666655,105.013331 0.0466666655,131.854663 L0.0466666655,311.634659 L93.7986643,311.634659 L93.7986643,144.538663 C93.7986643,123.943997 99.1213309,107.951997 109.791997,96.5599976 C120.446664,85.1599979 134.78533,79.4653313 152.80533,79.4653313 C171.185329,79.4653313 185.702662,85.1599979 196.373328,96.5599976 C207.027995,107.951997 212.365328,123.943997 212.365328,144.538663 L212.365328,311.634659 C264.44666,311.634659 306.666659,269.41466 306.666659,217.333328" id="path336"/>
                            </g>
                            <g id="g338" transform="translate(180.749195, 103.146264)" fill="#FFFFFF">
                                <path d="M306.666659,311.999992 L306.666659,4.27866656 L212.365328,4.27866656 L212.365328,46.1906655 C202.801328,32.5839992 189.841329,21.6493328 173.485329,13.377333 C157.123996,5.10533321 139.01733,0.969333309 119.16533,0.969333309 C95.6333309,0.969333309 74.8559981,6.20799984 56.8493319,16.6866662 C38.8293324,27.1639993 24.8639994,42.3293323 14.937333,62.1826651 C5.01066654,82.0359979 0.0466666655,105.378664 0.0466666655,132.219997 L0.0466666655,311.999992 L93.7986643,311.999992 L93.7986643,144.903996 C93.7986643,124.30933 99.1213309,108.317331 109.791997,96.9253309 C120.447997,85.5253312 134.78533,79.8306647 152.80533,79.8306647 C171.185329,79.8306647 185.702662,85.5253312 196.373328,96.9253309 C207.029328,108.317331 212.365328,124.30933 212.365328,144.903996 L212.365328,311.999992 L306.666659,311.999992 Z" id="path340"/>
                            </g>
                            <g id="g342" transform="translate(1004.928908, 106.507464)" fill="#FFFFFF">
                                <path d="M135.999997,297.333326 C152.54533,307.070659 170.925329,311.947992 191.149329,311.947992 L191.149329,212.130661 L165.229329,212.130661 C141.695996,212.130661 124.047997,207.073328 112.286664,196.965328 C100.515997,186.849329 94.6399976,169.115996 94.6399976,143.74933 L94.6399976,0.91733331 L0.338666658,0.91733331 L0.338666658,214.337328 C0.338666658,266.41866 42.5586656,308.638659 94.6399976,308.638659 L94.6399976,308.638659 L94.6399976,257.351994 C105.669331,274.257326 119.458664,287.587993 135.999997,297.333326" id="path344"/>
                            </g>
                            <g id="g346" transform="translate(1166.383304, 101.731731)" fill="#FFFFFF">
                                <path d="M213.333328,189.333329 C213.333328,205.506662 207.817328,218.371995 196.787995,227.935994 C185.758662,237.491994 171.970662,242.274661 155.427996,242.274661 C139.614663,242.274661 126.28533,237.673327 115.446664,228.487994 C104.597331,219.293328 97.8853309,206.238662 95.3159976,189.333329 L213.333328,189.333329 Z M308.183992,136.942663 L94.7666643,136.942663 C96.2306643,117.822664 102.389331,103.209331 113.239997,93.101331 C124.078664,82.9853313 137.407997,77.9359981 153.22133,77.9359981 C176.743996,77.9359981 193.109329,87.8626645 202.301328,107.714664 L302.670659,107.714664 C297.517326,87.4919978 288.235993,69.2933316 274.819993,53.1199987 C261.397327,36.9373324 244.575994,24.2533327 224.362661,15.0679996 C204.138662,5.87333319 181.527995,1.2813333 156.530663,1.2813333 C126.378664,1.2813333 99.5399975,7.70933314 76.0146648,20.5826662 C52.481332,33.4479992 34.1013325,51.8266654 20.8693328,75.7293314 C7.63199981,99.6239975 1.01466664,127.567997 1.01466664,159.553329 C1.01466664,191.538662 7.53999981,219.474661 20.5919995,243.377327 C33.6386658,267.271993 51.9319987,285.651993 75.4653314,298.523993 C98.9879975,311.389326 126.00933,317.826659 156.530663,317.826659 C186.307995,317.826659 212.781328,311.570659 235.941327,299.075993 C259.103994,286.573326 277.20666,268.745327 290.263993,245.583994 C303.306659,222.421328 309.838659,195.398662 309.838659,164.517329 C309.838659,155.693329 309.289326,146.499996 308.183992,136.942663 L308.183992,136.942663 Z" id="path348"/>
                            </g>
                            <g id="g354" transform="translate(35.157999, 0.553200)" fill="#00D8FF">
                                <path d="M18.6666662,6.6666665 C29.7759993,6.6666665 36.9039991,13.4746663 36.9039991,23.5559994 C36.9039991,33.6386658 29.7759993,40.4453323 18.6666662,40.4453323 L6.52799984,40.4453323 L6.52799984,6.6666665 L18.6666662,6.6666665 Z M0.106666664,46.0333322 L19.0506662,46.0333322 C33.4999992,46.0333322 43.3266656,36.9146657 43.3266656,23.5559994 C43.3266656,10.1986664 33.4999992,1.07999997 19.0506662,1.07999997 L0.106666664,1.07999997 L0.106666664,46.0333322 Z" id="path356"/>
                            </g>
                            <g id="g358" transform="translate(113.295064, 0.553200)" fill="#00D8FF">
                                <polygon id="path360" points="33.3333325 6.6666665 33.3333325 1.07999997 0.709333316 1.07999997 0.709333316 46.0333322 32.4333325 46.0333322 32.4333325 40.4453323 7.13066649 40.4453323 7.13066649 26.638666 29.6733326 26.638666 29.6733326 21.1799995 7.13066649 21.1799995 7.13066649 6.6666665"/>
                            </g>
                            <g id="g362" transform="translate(174.460662, 1.253067)" fill="#00D8FF">
                                <polygon id="path364" points="46.6666655 45.3333322 26.9519993 0.37999999 20.5946662 0.37999999 0.81599998 45.3333322 7.74933314 45.3333322 23.9333327 8.40799979 40.2453323 45.3333322"/>
                            </g>
                            <g id="g366" transform="translate(251.829327, 0.553200)" fill="#00D8FF">
                                <polygon id="path368" points="33.3333325 6.6666665 33.3333325 1.07999997 0.709333316 1.07999997 0.709333316 46.0333322 32.4333325 46.0333322 32.4333325 40.4453323 7.13066649 40.4453323 7.13066649 26.638666 29.6733326 26.638666 29.6733326 21.1799995 7.13066649 21.1799995 7.13066649 6.6666665"/>
                            </g>
                            <g id="g370" transform="translate(321.260125, 1.253067)" fill="#00D8FF">
                                <polygon id="path372" points="0 45.3333322 6.42133317 45.3333322 6.42133317 5.96666652 30.7599992 5.96666652 30.7599992 0.379999991 0 0.379999991"/>
                            </g>
                            <g id="g374" transform="translate(379.295057, 0.109600)" fill="#00D8FF">
                                <path d="M42.6666656,23.9999994 C42.6666656,33.9546658 35.2173325,41.2746656 25.262666,41.2746656 C15.1799996,41.2746656 7.73066647,33.9546658 7.73066647,23.9999994 C7.73066647,14.045333 15.1799996,6.72533317 25.262666,6.72533317 C35.2173325,6.72533317 42.6666656,14.045333 42.6666656,23.9999994 M1.3093333,23.9999994 C1.3093333,37.1653324 11.4559997,46.9906655 25.262666,46.9906655 C38.9413324,46.9906655 49.0879988,37.2293324 49.0879988,23.9999994 C49.0879988,10.7706664 38.9413324,1.00933331 25.262666,1.00933331 C11.4559997,1.00933331 1.3093333,10.8346664 1.3093333,23.9999994" id="path376"/>
                            </g>
                            <g id="g378" transform="translate(463.098788, 1.583200)" fill="#00D8FF">
                                <path d="M30.6666659,29.3333326 C30.6666659,35.7559991 26.3653327,39.415999 18.1453329,39.415999 L7.22666649,39.415999 L7.22666649,19.2506662 L18.1453329,19.2506662 C26.3653327,19.2506662 30.6666659,22.9119994 30.6666659,29.3333326 M37.0893324,29.3333326 C37.0893324,19.5719995 30.0253326,13.6639997 18.3359995,13.6639997 L7.22666649,13.6639997 L7.22666649,0.0493333321 L0.805333313,0.0493333321 L0.805333313,45.0026655 L18.3359995,45.0026655 C30.0253326,45.0026655 37.0893324,39.0946657 37.0893324,29.3333326" id="path380"/>
                            </g>
                            <g id="g382" transform="translate(534.612520, 0.553200)" fill="#00D8FF">
                                <polygon id="path384" points="33.3333325 6.6666665 33.3333325 1.07999997 0.709333316 1.07999997 0.709333316 46.0333322 32.4333325 46.0333322 32.4333325 40.4453323 7.13066649 40.4453323 7.13066649 26.638666 29.6733326 26.638666 29.6733326 21.1799995 7.13066649 21.1799995 7.13066649 6.6666665"/>
                            </g>
                            <g id="g386" transform="translate(603.237452, 1.583200)" fill="#00D8FF">
                                <path d="M30.6666659,29.3333326 C30.6666659,35.7559991 26.3653327,39.415999 18.1453329,39.415999 L7.22666649,39.415999 L7.22666649,19.1866662 L18.1453329,19.1866662 C26.3653327,19.1866662 30.6666659,22.9119994 30.6666659,29.3333326 L30.6666659,29.3333326 Z M30.8599992,0.0493333321 L21.1626661,13.8559997 C20.2639995,13.7919997 19.2999995,13.7279997 18.3373329,13.7279997 L7.22666649,13.7279997 L7.22666649,0.0493333321 L0.805333313,0.0493333321 L0.805333313,45.0026655 L18.3373329,45.0026655 C30.0253326,45.0026655 37.0893324,39.0946657 37.0893324,29.3333326 C37.0893324,22.3986661 33.4933325,17.3893329 27.1999993,15.141333 L37.8599991,0.0493333321 L30.8599992,0.0493333321 Z" id="path388"/>
                            </g>
                            <g id="g390" transform="translate(672.316117, 0.103733)" fill="#00D8FF">
                                <path d="M0,6.6666665 L2.37599994,11.6759997 C5.71599986,8.65733312 11.4306664,6.4746665 17.2106662,6.4746665 C24.9799994,6.4746665 28.3199993,9.49199976 28.3199993,13.409333 C28.3199993,24.3906661 1.09066664,17.4559996 1.09066664,34.1519991 C1.09066664,41.087999 6.4866665,46.9959988 18.3026662,46.9959988 C23.5679994,46.9959988 29.0266659,45.5839989 32.7506658,43.0146656 L30.6333326,37.8773324 C26.714666,40.3813323 22.2839994,41.5373323 18.3026662,41.5373323 C10.6599997,41.5373323 7.38399982,38.3266657 7.38399982,34.4093325 C7.38399982,23.4279994 34.6133325,30.2986659 34.6133325,13.7946663 C34.6133325,6.92399983 29.0906659,1.01599997 17.2106662,1.01599997 C10.3399997,1.01599997 3.59599991,3.32799992 0,6.6666665" id="path392"/>
                            </g>
                            <g id="g394" transform="translate(781.304780, 0.109600)" fill="#00D8FF">
                                <path d="M0,23.9999994 C0,37.2933324 10.1466664,46.9906655 23.8239994,46.9906655 C30.7599992,46.9906655 36.7973324,44.6146656 40.9066656,39.9906657 L36.7333324,35.9453324 C33.2639992,39.6053323 29.0266659,41.2746656 24.0813327,41.2746656 C13.9346663,41.2746656 6.42133317,33.9546658 6.42133317,23.9999994 C6.42133317,14.045333 13.9346663,6.72533317 24.0813327,6.72533317 C29.0266659,6.72533317 33.2639992,8.45866646 36.7333324,12.1186664 L40.9066656,8.07333313 C36.7973324,3.44933325 30.7599992,1.00933331 23.7599994,1.00933331 C10.1466664,1.00933331 0,10.7066664 0,23.9999994" id="path396"/>
                            </g>
                            <g id="g398" transform="translate(851.156112, 0.109600)" fill="#00D8FF">
                                <path d="M42.6666656,23.9999994 C42.6666656,33.9546658 35.2173325,41.2746656 25.2639994,41.2746656 C15.1799996,41.2746656 7.73066647,33.9546658 7.73066647,23.9999994 C7.73066647,14.045333 15.1799996,6.72533317 25.2639994,6.72533317 C35.2173325,6.72533317 42.6666656,14.045333 42.6666656,23.9999994 M1.3093333,23.9999994 C1.3093333,37.1653324 11.4559997,46.9906655 25.2639994,46.9906655 C38.9413324,46.9906655 49.0879988,37.2293324 49.0879988,23.9999994 C49.0879988,10.7706664 38.9413324,1.00933331 25.2639994,1.00933331 C11.4559997,1.00933331 1.3093333,10.8346664 1.3093333,23.9999994" id="path400"/>
                            </g>
                            <g id="g402" transform="translate(935.759043, 1.253067)" fill="#00D8FF">
                                <polygon id="path404" points="38.6666657 45.3333322 38.6666657 0.37999999 33.3999992 0.37999999 6.42799984 33.9026658 6.42799984 0.37999999 0.0066666665 0.37999999 0.0066666665 45.3333322 5.2733332 45.3333322 32.2439992 11.8106664 32.2439992 45.3333322"/>
                            </g>
                            <g id="g406" transform="translate(1013.362108, 0.999067)" fill="#00D8FF">
                                <polygon id="path408" points="6.6666665 39.999999 6.6666665 24.3306661 29.2093326 24.3306661 29.2093326 18.8079995 6.6666665 18.8079995 6.6666665 0.633333318 0.245333327 0.633333318 0.245333327 45.5866655 31.9693325 45.5866655 31.9693325 39.999999"/>
                            </g>
                            <g id="g410" transform="translate(1079.369973, 0.553200)" fill="#00D8FF">
                                <polygon id="path412" points="33.3333325 6.6666665 33.3333325 1.07999997 0.709333316 1.07999997 0.709333316 46.0333322 32.4333325 46.0333322 32.4333325 40.4453323 7.13066649 40.4453323 7.13066649 26.638666 29.6733326 26.638666 29.6733326 21.1799995 7.13066649 21.1799995 7.13066649 6.6666665"/>
                            </g>
                            <g id="g414" transform="translate(1147.995038, 1.583200)" fill="#00D8FF">
                                <path d="M30.6666659,29.3333326 C30.6666659,35.7559991 26.3653327,39.415999 18.1453329,39.415999 L7.22666649,39.415999 L7.22666649,19.1866662 L18.1453329,19.1866662 C26.3653327,19.1866662 30.6666659,22.9119994 30.6666659,29.3333326 L30.6666659,29.3333326 Z M30.8599992,0.0493333321 L21.1626661,13.8559997 C20.2626662,13.7919997 19.2999995,13.7279997 18.3359995,13.7279997 L7.22666649,13.7279997 L7.22666649,0.0493333321 L0.805333313,0.0493333321 L0.805333313,45.0026655 L18.3359995,45.0026655 C30.0253326,45.0026655 37.0893324,39.0946657 37.0893324,29.3333326 C37.0893324,22.3986661 33.4933325,17.3893329 27.1999993,15.141333 L37.8599991,0.0493333321 L30.8599992,0.0493333321 Z" id="path416"/>
                            </g>
                            <g id="g418" transform="translate(1220.471969, 0.553200)" fill="#00D8FF">
                                <polygon id="path420" points="33.3333325 6.6666665 33.3333325 1.07999997 0.709333316 1.07999997 0.709333316 46.0333322 32.4333325 46.0333322 32.4333325 40.4453323 7.13066649 40.4453323 7.13066649 26.638666 29.6733326 26.638666 29.6733326 21.1799995 7.13066649 21.1799995 7.13066649 6.6666665"/>
                            </g>
                            <g id="g422" transform="translate(1289.897968, 1.253067)" fill="#00D8FF">
                                <polygon id="path424" points="38.6666657 45.3333322 38.6666657 0.37999999 33.3999992 0.37999999 6.42799984 33.9026658 6.42799984 0.37999999 0.0066666665 0.37999999 0.0066666665 45.3333322 5.2733332 45.3333322 32.2439992 11.8106664 32.2439992 45.3333322"/>
                            </g>
                            <g id="g426" transform="translate(1364.084766, 0.109600)" fill="#00D8FF">
                                <path d="M0,23.9999994 C0,37.2933324 10.1466664,46.9906655 23.8239994,46.9906655 C30.7599992,46.9906655 36.7973324,44.6146656 40.9066656,39.9906657 L36.7333324,35.9453324 C33.2639992,39.6053323 29.0266659,41.2746656 24.0813327,41.2746656 C13.9346663,41.2746656 6.42133317,33.9546658 6.42133317,23.9999994 C6.42133317,14.045333 13.9346663,6.72533317 24.0813327,6.72533317 C29.0266659,6.72533317 33.2639992,8.45866646 36.7333324,12.1186664 L40.9066656,8.07333313 C36.7973324,3.44933325 30.7599992,1.00933331 23.7599994,1.00933331 C10.1466664,1.00933331 0,10.7066664 0,23.9999994" id="path428"/>
                            </g>
                            <g id="g430" transform="translate(1439.159431, 0.553200)" fill="#00D8FF">
                                <polygon id="path432" points="33.3333325 6.6666665 33.3333325 1.07999997 0.709333316 1.07999997 0.709333316 46.0333322 32.4333325 46.0333322 32.4333325 40.4453323 7.13066649 40.4453323 7.13066649 26.638666 29.6733326 26.638666 29.6733326 21.1799995 7.13066649 21.1799995 7.13066649 6.6666665"/>
                            </g>
                        </g>
                    </g>
                </g>
            </g>
        </g>
    </g>
</svg>